<svg width="18" height="17" viewBox="0 0 18 17" fill="none" xmlns="http://www.w3.org/2000/svg">
<path d="M3.38003 16.893C3.00603 16.893 2.65603 16.747 2.39203 16.483L1.09003 15.181C0.826031 14.917 0.68103 14.567 0.68103 14.193C0.68103 13.819 0.827031 13.468 1.09003 13.205L5.01603 9.27901C3.97003 6.88901 4.48903 4.08401 6.34603 2.22801C7.54803 1.02601 9.14603 0.364014 10.846 0.364014C12.546 0.364014 14.144 1.02601 15.346 2.22801C16.549 3.43001 17.21 5.02801 17.21 6.72801C17.21 8.42701 16.548 10.025 15.346 11.228C14.145 12.429 12.548 13.091 10.849 13.091C9.97303 13.091 9.09503 12.907 8.29503 12.558L4.36903 16.484C4.10403 16.748 3.75403 16.893 3.38003 16.893ZM10.846 1.05401C9.33003 1.05401 7.90603 1.64401 6.83403 2.71601C5.12603 4.42401 4.68703 7.03001 5.74003 9.20301C5.80403 9.33501 5.77703 9.49401 5.67403 9.59701L1.57803 13.693C1.44403 13.827 1.37003 14.005 1.37003 14.194C1.37003 14.383 1.44303 14.561 1.57803 14.694L2.88003 15.996C3.01403 16.131 3.19203 16.204 3.38003 16.204C3.56803 16.204 3.74703 16.131 3.88003 15.996L7.97603 11.9C8.08003 11.796 8.23803 11.77 8.37103 11.833C9.13603 12.205 9.99303 12.4 10.848 12.4C12.363 12.4 13.787 11.811 14.858 10.739C15.93 9.66701 16.52 8.24201 16.52 6.72701C16.52 5.21101 15.93 3.78601 14.858 2.71401C13.786 1.64201 12.361 1.05401 10.846 1.05401Z" fill="white"/>
<path d="M10.83 11.211C9.63703 11.211 8.51503 10.746 7.67103 9.902C6.82703 9.059 6.36203 7.937 6.36203 6.743C6.36203 5.55 6.82703 4.428 7.67103 3.584C8.51403 2.74 9.63603 2.276 10.83 2.276C12.024 2.276 13.145 2.741 13.989 3.584C14.832 4.428 15.297 5.55 15.297 6.743C15.297 7.936 14.832 9.058 13.989 9.902C13.145 10.746 12.024 11.211 10.83 11.211ZM10.83 2.966C9.82103 2.966 8.87203 3.359 8.15903 4.072C7.44603 4.786 7.05303 5.734 7.05303 6.743C7.05303 7.752 7.44603 8.701 8.15903 9.414C8.87303 10.128 9.82103 10.521 10.83 10.521C11.839 10.521 12.788 10.128 13.501 9.415C14.214 8.701 14.608 7.752 14.608 6.744C14.608 5.735 14.214 4.786 13.501 4.073C12.788 3.359 11.84 2.966 10.83 2.966Z" fill="white"/>
</svg>
